<svg width="100" height="100" viewBox="0 0 100 100" fill="none" xmlns="http://www.w3.org/2000/svg">
<g clip-path="url(#clip0_988_3302)">
<path fill-rule="evenodd" clip-rule="evenodd" d="M50 100C77.6142 100 100 77.6142 100 50C100 22.3858 77.6142 0 50 0C22.3858 0 0 22.3858 0 50C0 77.6142 22.3858 100 50 100ZM37.3282 48.7087C34.362 47.1309 32.8789 44.6538 32.8789 41.2773C32.8789 39.5733 33.3207 38.0271 34.2042 36.6387C35.0878 35.2187 36.4289 34.0984 38.2276 33.278C40.0262 32.426 42.2351 32 44.8542 32C47.4733 32 49.6664 32.426 51.4336 33.278C53.2322 34.0984 54.5733 35.2187 55.4569 36.6387C56.3404 38.0271 56.7822 39.5733 56.7822 41.2773C56.7822 42.9813 56.372 44.4644 55.5516 45.7267C54.7627 46.9889 53.6898 47.9829 52.3329 48.7087C54.0369 49.5291 55.3464 50.6651 56.2616 52.1167C57.1767 53.5367 57.6342 55.2091 57.6342 57.134C57.6342 59.3744 57.0662 61.3151 55.9302 62.956C54.7942 64.5653 53.248 65.796 51.2916 66.648C49.3667 67.5 47.2209 67.926 44.8542 67.926C42.4876 67.926 40.326 67.5 38.3696 66.648C36.4447 65.796 34.9142 64.5653 33.7782 62.956C32.6422 61.3151 32.0742 59.3744 32.0742 57.134C32.0742 55.1776 32.5318 53.4893 33.4469 52.0693C34.362 50.6178 35.6558 49.4976 37.3282 48.7087ZM48.9249 42.508C48.9249 41.2142 48.5462 40.2202 47.7889 39.526C47.0631 38.8002 46.0849 38.4373 44.8542 38.4373C43.6236 38.4373 42.6296 38.8002 41.8722 39.526C41.1464 40.2518 40.7836 41.2616 40.7836 42.5553C40.7836 43.786 41.1622 44.7642 41.9196 45.49C42.6769 46.1842 43.6551 46.5313 44.8542 46.5313C46.0533 46.5313 47.0316 46.1684 47.7889 45.4427C48.5462 44.7169 48.9249 43.7387 48.9249 42.508ZM44.8542 52.2113C43.3711 52.2113 42.172 52.6216 41.2569 53.442C40.3418 54.2309 39.8842 55.3353 39.8842 56.7553C39.8842 58.0807 40.326 59.1693 41.2096 60.0213C42.1247 60.8733 43.3396 61.2993 44.8542 61.2993C46.3689 61.2993 47.5522 60.8733 48.4042 60.0213C49.2878 59.1693 49.7296 58.0807 49.7296 56.7553C49.7296 55.3669 49.272 54.2624 48.3569 53.442C47.4733 52.6216 46.3058 52.2113 44.8542 52.2113ZM13 40.236V32.71H26.1113V67.2633H17.686V40.236H13ZM78.9076 54.3413H87.1436V47.0993H78.9076V38.6267H71.2396V47.0993H63.0036V54.3413H71.2396V62.7667H78.9076V54.3413Z" fill="white"/>
</g>
<defs>
<clipPath id="clip0_988_3302">
<rect width="100" height="100" fill="white"/>
</clipPath>
</defs>
</svg>
